<svg aria-hidden="true" style="position: absolute; width: 0; height: 0; overflow: hidden;" version="1.1" xmlns="http://www.w3.org/2000/svg" xmlns:xlink="http://www.w3.org/1999/xlink">
    <defs>
        <symbol id="icon-twitter" viewBox="0 0 32 32">
            <path d="M32 6.078c-1.1 0.494-2.376 0.858-3.712 1.029l-0.068 0.007c1.36-0.817 2.381-2.078 2.873-3.58l0.013-0.046c-1.197 0.723-2.591 1.274-4.076 1.574l-0.084 0.014c-1.2-1.279-2.901-2.076-4.788-2.076-3.623 0-6.56 2.937-6.56 6.56v0c0 0.52 0.044 1.020 0.152 1.496-5.468-0.276-10.278-2.878-13.495-6.828l-0.027-0.034c-0.563 0.949-0.895 2.091-0.895 3.311 0 2.264 1.145 4.261 2.888 5.442l0.023 0.015c-1.092-0.030-2.109-0.325-2.997-0.823l0.033 0.017v0.072c0.004 3.164 2.237 5.806 5.213 6.438l0.043 0.008c-0.501 0.137-1.075 0.216-1.669 0.216-0.018 0-0.036-0-0.054-0l0.003 0c-0.031 0.001-0.067 0.001-0.103 0.001-0.403 0-0.796-0.041-1.176-0.119l0.037 0.006c0.873 2.624 3.273 4.496 6.121 4.57l0.009 0c-2.214 1.744-5.044 2.798-8.12 2.798-0.005 0-0.010 0-0.015 0h0.001c-0.538 0-1.054-0.024-1.57-0.090 2.826 1.846 6.287 2.944 10.004 2.944 0.021 0 0.042-0 0.063-0h-0.003c12.072 0 18.672-10 18.672-18.668 0-0.29-0.010-0.57-0.024-0.848 1.299-0.937 2.391-2.066 3.258-3.359l0.030-0.047z"></path>
        </symbol>
        <symbol id="icon-instagram" viewBox="0 0 32 32">
            <path d="M31.968 9.408c-0.074-1.7-0.35-2.87-0.744-3.882-0.424-1.111-1.053-2.058-1.849-2.837l-0.001-0.001c-0.78-0.792-1.724-1.419-2.778-1.826l-0.054-0.018c-1.020-0.394-2.18-0.67-3.88-0.744-1.716-0.080-2.262-0.1-6.602-0.1-4.346 0-4.89 0.020-6.596 0.094-1.7 0.074-2.868 0.35-3.88 0.744-1.112 0.424-2.060 1.053-2.839 1.849l-0.001 0.001c-0.792 0.78-1.419 1.724-1.826 2.778l-0.018 0.054c-0.394 1.020-0.668 2.18-0.744 3.88-0.080 1.714-0.1 2.26-0.1 6.602 0 4.346 0.020 4.89 0.094 6.596 0.074 1.7 0.35 2.87 0.744 3.882 0.406 1.076 1.038 2.038 1.85 2.84 0.8 0.81 1.77 1.442 2.832 1.842 1.020 0.394 2.18 0.67 3.882 0.744 1.706 0.076 2.25 0.094 6.596 0.094 4.344 0 4.888-0.020 6.594-0.094 1.7-0.074 2.87-0.35 3.882-0.744 2.156-0.85 3.832-2.524 4.663-4.625l0.019-0.055c0.394-1.020 0.67-2.184 0.744-3.884 0.076-1.706 0.094-2.25 0.094-6.594 0-4.346-0.006-4.89-0.080-6.596zM29.088 22.472c-0.070 1.564-0.332 2.408-0.552 2.97-0.551 1.4-1.638 2.488-3.002 3.027l-0.036 0.013c-0.562 0.218-1.412 0.48-2.968 0.548-1.688 0.076-2.194 0.094-6.464 0.094s-4.782-0.020-6.464-0.094c-1.564-0.068-2.408-0.33-2.97-0.55-0.721-0.269-1.335-0.676-1.837-1.193l-0.001-0.001c-0.517-0.504-0.923-1.118-1.183-1.804l-0.011-0.034c-0.22-0.562-0.48-1.412-0.55-2.968-0.074-1.688-0.094-2.196-0.094-6.464 0-4.27 0.020-4.782 0.094-6.464 0.070-1.564 0.332-2.406 0.55-2.97 0.256-0.694 0.664-1.324 1.2-1.838 0.52-0.53 1.144-0.938 1.84-1.194 0.56-0.22 1.412-0.48 2.968-0.55 1.688-0.074 2.194-0.094 6.464-0.094 4.276 0 4.78 0.020 6.464 0.094 1.562 0.070 2.406 0.332 2.968 0.55 0.694 0.256 1.326 0.664 1.84 1.194 0.53 0.52 0.936 1.144 1.192 1.84 0.22 0.56 0.482 1.412 0.55 2.968 0.076 1.688 0.094 2.194 0.094 6.464s-0.018 4.77-0.092 6.458z"></path>
            <path d="M16.060 7.782c-4.462 0.102-8.041 3.743-8.041 8.22s3.578 8.118 8.031 8.22l0.009 0c4.462-0.102 8.041-3.743 8.041-8.22s-3.578-8.118-8.031-8.22l-0.009-0zM16.060 21.336c-2.946 0-5.334-2.388-5.334-5.334s2.388-5.334 5.334-5.334v0c2.946 0 5.334 2.388 5.334 5.334s-2.388 5.334-5.334 5.334v0zM26.524 7.458c0 1.060-0.86 1.92-1.92 1.92s-1.92-0.86-1.92-1.92v0c0-1.060 0.86-1.92 1.92-1.92s1.92 0.86 1.92 1.92v0z"></path>
        </symbol>
        <symbol id="icon-angle" viewBox="0 0 32 32">
            <path d="M16.945 17.868c-0.242 0.242-0.576 0.392-0.945 0.392s-0.704-0.15-0.945-0.392l-0-0-6.109-6.121c-0.244-0.264-0.592-0.428-0.979-0.428-0.737 0-1.334 0.597-1.334 1.334 0 0.384 0.162 0.729 0.421 0.973l0.001 0.001 6.119 6.121c0.724 0.723 1.723 1.169 2.826 1.169s2.103-0.447 2.826-1.169l6.121-6.121c0.239-0.241 0.387-0.573 0.387-0.94 0-0.737-0.597-1.334-1.334-1.334-0.37 0-0.705 0.151-0.947 0.394l-0 0-6.106 6.119z"></path>
        </symbol>
        <symbol id="icon-coin" viewBox="0 0 32 32">
            <path d="M16 0.762c-8.381 0-15.238 6.857-15.238 15.238s6.857 15.238 15.238 15.238 15.238-6.857 15.238-15.238-6.857-15.238-15.238-15.238zM16 28.191c-6.705 0-12.191-5.486-12.191-12.191s5.486-12.191 12.191-12.191 12.191 5.486 12.191 12.191-5.486 12.191-12.191 12.191z"></path>
            <path d="M17.981 14.477h-3.961c-0.762 0-1.371-0.61-1.371-1.371 0-0.762 0.609-1.371 1.371-1.371h5.638c0.914 0 1.523-0.61 1.523-1.525s-0.609-1.523-1.523-1.523h-2.134v-1.371c0-0.914-0.609-1.523-1.523-1.523s-1.523 0.609-1.523 1.523v1.371h-0.457c-2.44 0.002-4.417 1.979-4.419 4.419v0c0.003 2.439 1.98 4.416 4.419 4.418h3.809c0.762 0 1.371 0.61 1.371 1.371 0 0.762-0.609 1.371-1.371 1.371h-5.638c-0.914 0-1.525 0.61-1.525 1.525s0.61 1.523 1.525 1.523h2.286v1.371c0 0.914 0.609 1.523 1.523 1.523s1.523-0.609 1.523-1.523v-1.371h0.457c2.44-0.002 4.417-1.979 4.419-4.419v-0c-0.003-2.439-1.98-4.416-4.419-4.418h-0z"></path>
        </symbol>
        <symbol id="icon-choco" viewBox="0 0 31 32">
            <path d="M13.045 0.456l8.306 8.316 0.088-0.088c0.17-0.167 0.403-0.27 0.661-0.27 0.25 0 0.477 0.097 0.646 0.256l-0-0 0.963 0.963c0.337 0.337 0.348 0.85 0.092 1.207l-0.004 0.008-0.158 0.212 6.797 6.797c0.607 0.607 0.607 1.578 0 2.185l-10.406 10.406c-0.607 0.607-1.578 0.607-2.185 0l-4.907-4.907c-0.171 0.215-0.434 0.352-0.728 0.352-0.257 0-0.49-0.105-0.658-0.274l-2.869-2.869c-0.167-0.17-0.27-0.403-0.27-0.661 0-0.25 0.097-0.477 0.256-0.646l-0 0 0.007-0.008 0.085-0.084-8.306-8.306c-0.607-0.607-0.607-1.578 0-2.185l10.406-10.406c0.607-0.607 1.578-0.607 2.185 0v0.001zM20.308 9.813l-1.938-1.937c-0.119-0.122-0.285-0.199-0.469-0.199s-0.35 0.076-0.469 0.198l-3.95 3.951c-0.122 0.121-0.197 0.289-0.197 0.474s0.075 0.353 0.197 0.474l1.93 1.93 0.673-0.673-1.727-1.727 3.542-3.553 1.731 1.737 0.676-0.676zM14.707 15.41l-1.935-1.935c-0.119-0.122-0.285-0.198-0.469-0.198s-0.35 0.076-0.469 0.198l-3.962 3.962c-0.265 0.254-0.265 0.673 0 0.938l1.933 1.933 0.68-0.68-1.732-1.726 3.553-3.542 1.726 1.725 0.675-0.674zM7.528 6.834l3.95 3.95c0.265 0.265 0.684 0.265 0.938-0.011l3.95-3.95c0.122-0.117 0.199-0.281 0.199-0.463 0-0 0-0 0-0v0h0.011c0-0.166-0.066-0.342-0.199-0.474l-3.95-3.95c-0.121-0.123-0.289-0.198-0.474-0.198s-0.354 0.076-0.474 0.198l-0 0-3.95 3.961c-0.265 0.254-0.265 0.673 0 0.938zM1.933 12.428l3.95 3.95c0.265 0.265 0.684 0.265 0.938 0l3.95-3.95c0.123-0.117 0.199-0.281 0.199-0.464 0-0.004-0-0.008-0-0.012v0.001h0.011c0-0.177-0.066-0.342-0.199-0.474l-3.95-3.95c-0.119-0.122-0.285-0.199-0.469-0.199s-0.35 0.076-0.469 0.198l-3.962 3.962c-0.265 0.254-0.265 0.673 0 0.938zM9.583 22.088l2.606 2.607 10.633-14.389-0.723-0.723-12.516 12.504z"></path>
            <path d="M13.045 0.456l8.306 8.316 0.088-0.088c0.17-0.167 0.403-0.27 0.661-0.27 0.25 0 0.477 0.097 0.646 0.256l-0-0 0.963 0.963c0.337 0.337 0.348 0.85 0.092 1.207l-0.004 0.008-0.158 0.212 6.797 6.797c0.607 0.607 0.607 1.578 0 2.185l-10.406 10.406c-0.607 0.607-1.578 0.607-2.185 0l-4.907-4.907c-0.171 0.215-0.434 0.352-0.728 0.352-0.257 0-0.49-0.105-0.658-0.274l-2.869-2.869c-0.167-0.17-0.27-0.403-0.27-0.661 0-0.25 0.097-0.477 0.256-0.646l-0 0 0.007-0.008 0.085-0.084-8.306-8.306c-0.607-0.607-0.607-1.578 0-2.185l10.406-10.406c0.607-0.607 1.578-0.607 2.185 0v0.001zM20.308 9.813l-1.938-1.937c-0.119-0.122-0.285-0.199-0.469-0.199s-0.35 0.076-0.469 0.198l-3.95 3.951c-0.122 0.121-0.197 0.289-0.197 0.474s0.075 0.353 0.197 0.474l1.93 1.93 0.673-0.673-1.727-1.727 3.542-3.553 1.731 1.737 0.676-0.676zM14.707 15.41l-1.935-1.935c-0.119-0.122-0.285-0.198-0.469-0.198s-0.35 0.076-0.469 0.198l-3.962 3.962c-0.265 0.254-0.265 0.673 0 0.938l1.933 1.933 0.68-0.68-1.732-1.726 3.553-3.542 1.726 1.725 0.675-0.674zM7.528 6.834l3.95 3.95c0.265 0.265 0.684 0.265 0.938-0.011l3.95-3.95c0.122-0.117 0.199-0.281 0.199-0.463 0-0 0-0 0-0v0h0.011c0-0.166-0.066-0.342-0.199-0.474l-3.95-3.95c-0.121-0.123-0.289-0.198-0.474-0.198s-0.354 0.076-0.474 0.198l-0 0-3.95 3.961c-0.265 0.254-0.265 0.673 0 0.938zM1.933 12.428l3.95 3.95c0.265 0.265 0.684 0.265 0.938 0l3.95-3.95c0.123-0.117 0.199-0.281 0.199-0.464 0-0.004-0-0.008-0-0.012v0.001h0.011c0-0.177-0.066-0.342-0.199-0.474l-3.95-3.95c-0.119-0.122-0.285-0.199-0.469-0.199s-0.35 0.076-0.469 0.198l-3.962 3.962c-0.265 0.254-0.265 0.673 0 0.938zM9.583 22.088l2.606 2.607 10.633-14.389-0.723-0.723-12.516 12.504z"></path>
        </symbol>
        <symbol id="icon-spoon" viewBox="0 0 32 32">
            <path d="M15.373 13.835c-0.837-1.010-1.344-2.319-1.344-3.746 0-0.002 0-0.003 0-0.005v0c0-4.942 5.921-9.877 11.842-9.877 3.27 0.001 5.921 2.652 5.921 5.922v0c0 5.922-4.934 11.845-9.881 11.845-0.001 0-0.002 0-0.003 0-1.428 0-2.737-0.508-3.756-1.353l0.010 0.008-14.581 14.584c-0.352 0.328-0.826 0.53-1.347 0.53-1.092 0-1.977-0.885-1.977-1.977 0-0.521 0.201-0.995 0.531-1.348l-0.001 0.001 14.585-14.584z"></path>
        </symbol>
    </defs>
</svg>
